<?xml version="1.0" encoding="UTF-8" standalone="no"?><!DOCTYPE svg PUBLIC "-//W3C//DTD SVG 1.1//EN" "http://www.w3.org/Graphics/SVG/1.1/DTD/svg11.dtd"><svg width="100%" height="100%" viewBox="0 0 306 163" version="1.1" xmlns="http://www.w3.org/2000/svg" xmlns:xlink="http://www.w3.org/1999/xlink" xml:space="preserve" xmlns:serif="http://www.serif.com/" style="fill-rule:evenodd;clip-rule:evenodd;stroke-linecap:round;stroke-linejoin:round;stroke-miterlimit:1.5;"><path d="M148.944,115.988l64,-32l0,-32l-64,0l-64,32l0,32l64,0Z" style="stroke:#000;stroke-width:1px;"/><g><ellipse cx="144.272" cy="17.652" rx="11.004" ry="5.502"/><ellipse cx="144.272" cy="17.652" rx="29.24" ry="14.62" style="fill:none;stroke:#000;stroke-width:6.06px;"/></g><g><ellipse cx="273.616" cy="82.324" rx="11.004" ry="5.502"/><ellipse cx="273.616" cy="82.324" rx="29.24" ry="14.62" style="fill:none;stroke:#000;stroke-width:6.06px;"/></g><g><ellipse cx="148.944" cy="144.66" rx="11.004" ry="5.502"/><ellipse cx="148.944" cy="144.66" rx="29.24" ry="14.62" style="fill:none;stroke:#000;stroke-width:6.06px;"/></g><g><ellipse cx="32.272" cy="86.324" rx="11.004" ry="5.502"/><ellipse cx="32.272" cy="86.324" rx="29.24" ry="14.62" style="fill:none;stroke:#000;stroke-width:6.06px;"/></g><path d="M140.944,63.988l-3,-46.5l11,2.5l16,40l-24,4Z"/><path d="M284.619,82.324l-76.675,-3.836l-29.76,14.88l95.432,-3.044c6.591,-1.497 9.753,-4.367 11.003,-8Z"/><path d="M141.165,148.549l-8.221,-48.561l27.003,2.498l-3.224,46.063c-5.706,3.117 -10.921,3.292 -15.558,0Z"/><path d="M35.944,83.488l53,4.5l10,17.446l-73.699,-13.295c-11.17,-8.541 4.855,-13.555 10.699,-8.651Z"/></svg>